<?xml version="1.0" encoding="UTF-8" standalone="no"?>
<!-- Created with Inkscape (http://www.inkscape.org/) -->

<svg
   xmlns:dc="http://purl.org/dc/elements/1.1/"
   xmlns:cc="http://creativecommons.org/ns#"
   xmlns:rdf="http://www.w3.org/1999/02/22-rdf-syntax-ns#"
   xmlns:svg="http://www.w3.org/2000/svg"
   xmlns="http://www.w3.org/2000/svg"
   xmlns:xlink="http://www.w3.org/1999/xlink"
   xmlns:sodipodi="http://sodipodi.sourceforge.net/DTD/sodipodi-0.dtd"
   xmlns:inkscape="http://www.inkscape.org/namespaces/inkscape"
   width="600"
   height="600"
   id="svg2"
   version="1.1"
   inkscape:version="0.48.4 r9939"
   sodipodi:docname="New document 1">
  <sodipodi:namedview
     id="base"
     pagecolor="#ffffff"
     bordercolor="#666666"
     borderopacity="1.0"
     inkscape:pageopacity="0.0"
     inkscape:pageshadow="2"
     inkscape:zoom="0.98994949"
     inkscape:cx="87.655176"
     inkscape:cy="310.43314"
     inkscape:document-units="px"
     inkscape:current-layer="layer4"
     showgrid="false"
     inkscape:window-width="1920"
     inkscape:window-height="1017"
     inkscape:window-x="892"
     inkscape:window-y="352"
     inkscape:window-maximized="1" />
  <defs
     id="defs4">
    <linearGradient
       inkscape:collect="always"
       id="linearGradient10632">
      <stop
         style="stop-color:#000000;stop-opacity:1;"
         offset="0"
         id="stop10634" />
      <stop
         style="stop-color:#000000;stop-opacity:0;"
         offset="1"
         id="stop10636" />
    </linearGradient>
    <linearGradient
       id="linearGradient3769">
      <stop
         style="stop-color:#009bff;stop-opacity:1;"
         offset="0"
         id="stop3771" />
      <stop
         style="stop-color:#00bdff;stop-opacity:1;"
         offset="1"
         id="stop3773" />
    </linearGradient>
    <radialGradient
       inkscape:collect="always"
       xlink:href="#linearGradient3769"
       id="radialGradient3775"
       cx="305.57114"
       cy="345.94662"
       fx="305.57114"
       fy="345.94662"
       r="209.0965"
       gradientUnits="userSpaceOnUse" />
    <radialGradient
       inkscape:collect="always"
       xlink:href="#linearGradient3769-8"
       id="radialGradient3775-8"
       cx="305.57114"
       cy="345.94662"
       fx="305.57114"
       fy="345.94662"
       r="209.0965"
       gradientUnits="userSpaceOnUse" />
    <linearGradient
       id="linearGradient3769-8">
      <stop
         style="stop-color:#009bff;stop-opacity:1;"
         offset="0"
         id="stop3771-1" />
      <stop
         style="stop-color:#00bdff;stop-opacity:1;"
         offset="1"
         id="stop3773-2" />
    </linearGradient>
    <radialGradient
       r="209.0965"
       fy="345.94662"
       fx="305.57114"
       cy="345.94662"
       cx="305.57114"
       gradientUnits="userSpaceOnUse"
       id="radialGradient8243"
       xlink:href="#linearGradient3769-8"
       inkscape:collect="always" />
    <linearGradient
       inkscape:collect="always"
       xlink:href="#linearGradient10632"
       id="linearGradient10638"
       x1="287.89346"
       y1="251.49738"
       x2="741.45197"
       y2="742.43152"
       gradientUnits="userSpaceOnUse" />
    <clipPath
       clipPathUnits="userSpaceOnUse"
       id="clipPath10679">
      <path
         transform="matrix(1.2272498,0,0,1.2272498,-75.012116,-124.56293)"
         d="m 514.16763,345.94662 a 208.5965,208.5965 0 1 1 -417.19299,0 208.5965,208.5965 0 1 1 417.19299,0 z"
         sodipodi:ry="208.5965"
         sodipodi:rx="208.5965"
         sodipodi:cy="345.94662"
         sodipodi:cx="305.57114"
         id="path10681"
         style="fill:url(#radialGradient10683);fill-opacity:1;stroke:none;display:inline"
         sodipodi:type="arc" />
    </clipPath>
    <radialGradient
       inkscape:collect="always"
       xlink:href="#linearGradient3769-8"
       id="radialGradient10683"
       gradientUnits="userSpaceOnUse"
       cx="305.57114"
       cy="345.94662"
       fx="305.57114"
       fy="345.94662"
       r="209.0965" />
    <clipPath
       clipPathUnits="userSpaceOnUse"
       id="clipPath10685">
      <path
         transform="matrix(1.2272498,0,0,1.2272498,-75.012116,-124.56293)"
         d="m 514.16763,345.94662 a 208.5965,208.5965 0 1 1 -417.19299,0 208.5965,208.5965 0 1 1 417.19299,0 z"
         sodipodi:ry="208.5965"
         sodipodi:rx="208.5965"
         sodipodi:cy="345.94662"
         sodipodi:cx="305.57114"
         id="path10687"
         style="fill:url(#radialGradient10689);fill-opacity:1;stroke:none;display:inline"
         sodipodi:type="arc" />
    </clipPath>
    <radialGradient
       inkscape:collect="always"
       xlink:href="#linearGradient3769-8"
       id="radialGradient10689"
       gradientUnits="userSpaceOnUse"
       cx="305.57114"
       cy="345.94662"
       fx="305.57114"
       fy="345.94662"
       r="209.0965" />
  </defs>
  <metadata
     id="metadata7">
    <rdf:RDF>
      <cc:Work
         rdf:about="">
        <dc:format>image/svg+xml</dc:format>
        <dc:type
           rdf:resource="http://purl.org/dc/dcmitype/StillImage" />
        <dc:title></dc:title>
      </cc:Work>
    </rdf:RDF>
  </metadata>
  <g
     inkscape:groupmode="layer"
     id="layer3"
     inkscape:label="back"
     style="display:inline"
     sodipodi:insensitive="true">
    <path
       sodipodi:type="arc"
       style="fill:url(#radialGradient8243);fill-opacity:1;stroke:none"
       id="path2991"
       sodipodi:cx="305.57114"
       sodipodi:cy="345.94662"
       sodipodi:rx="208.5965"
       sodipodi:ry="208.5965"
       d="m 514.16763,345.94662 a 208.5965,208.5965 0 1 1 -417.19299,0 208.5965,208.5965 0 1 1 417.19299,0 z"
       transform="matrix(1.2272498,0,0,1.2272498,-75.012116,-124.56293)" />
  </g>
  <g
     inkscape:groupmode="layer"
     id="layer4"
     inkscape:label="calc"
     style="display:inline;opacity:1">
    <path
       style="fill:url(#linearGradient10638);fill-opacity:1;stroke:none;opacity:0.2"
       d="m 204,143.96875 c -11.05899,0.0168 -20.03125,8.91698 -20.03125,20.03125 l 0,279.9375 c 0,6.52072 3.18587,12.31394 8.03125,15.96875 1.11838,1.47239 2.43446,2.78948 3.90625,3.90625 1.11904,1.47993 2.43085,2.81513 3.90625,3.9375 1.12084,1.4785 2.46069,2.78567 3.9375,3.90625 1.12143,1.47467 2.43026,2.78887 3.90625,3.90625 1.10175,1.44236 2.37022,2.74417 3.8125,3.84375 1.11305,1.46162 2.41313,2.76461 3.875,3.875 1.09283,1.42591 2.35484,2.69127 3.78125,3.78125 1.09473,1.4347 2.38075,2.68507 3.8125,3.78125 1.10178,1.44402 2.36956,2.74289 3.8125,3.84375 1.07809,1.40051 2.31777,2.64339 3.71875,3.71875 1.07333,1.40046 2.32298,2.6417 3.71875,3.71875 1.07746,1.40852 2.34677,2.66809 3.75,3.75 1.07869,1.4038 2.31591,2.67226 3.71875,3.75 1.06928,1.38178 2.30292,2.62379 3.6875,3.6875 1.04937,1.35384 2.27212,2.5452 3.625,3.59375 1.06404,1.38225 2.27722,2.62154 3.65625,3.6875 1.0514,1.35738 2.26864,2.57434 3.625,3.625 1.03799,1.33533 2.25978,2.52477 3.59375,3.5625 1.04536,1.34825 2.24721,2.5795 3.59375,3.625 1.04425,1.34219 2.25056,2.55271 3.59375,3.59375 1.02982,1.31702 2.21255,2.47415 3.53125,3.5 1.01876,1.30698 2.16554,2.47845 3.46875,3.5 1.02385,1.31714 2.219,2.50325 3.53125,3.53125 1.02528,1.31309 2.1876,2.507 3.5,3.53125 1.00774,1.28161 2.18617,2.43274 3.46875,3.4375 1.01515,1.29334 2.17413,2.45699 3.46875,3.46875 1.00367,1.27309 2.13097,2.43829 3.40625,3.4375 1.00528,1.27277 2.16058,2.40783 3.4375,3.40625 0.98232,1.24054 2.07122,2.36401 3.3125,3.34375 0.99732,1.26741 2.13977,2.40954 3.40625,3.40625 0.97152,1.22457 2.08815,2.34234 3.3125,3.3125 0.99116,1.2549 2.11938,2.38644 3.375,3.375 0.98723,1.23884 2.0977,2.36701 3.34375,3.34375 0.94492,1.17708 2.00715,2.24805 3.1875,3.1875 0.9624,1.21307 2.07051,2.31761 3.28125,3.28125 0.95101,1.19743 2.02537,2.26439 3.21875,3.21875 0.95328,1.20158 2.05283,2.29294 3.25,3.25 0.9467,1.18798 2.03303,2.27084 3.21875,3.21875 0.94005,1.17849 1.98072,2.24537 3.15625,3.1875 0.93377,1.16878 2.02182,2.22022 3.1875,3.15625 0.93484,1.16789 1.98968,2.25255 3.15625,3.1875 0.93537,1.16505 1.98999,2.22382 3.15625,3.15625 0.914,1.13312 1.92916,2.15015 3.0625,3.0625 0.92625,1.15369 1.97213,2.19921 3.125,3.125 0.89904,1.11043 1.9209,2.13345 3.03125,3.03125 0.90063,1.11734 1.91712,2.15938 3.03125,3.0625 0.89674,1.1097 1.92361,2.13339 3.03125,3.03125 0.91066,1.12692 1.93466,2.15433 3.0625,3.0625 0.88778,1.08892 1.87691,2.08574 2.96875,2.96875 0.87366,1.0716 1.86594,2.06504 2.9375,2.9375 0.86212,1.06214 1.84985,2.03853 2.90625,2.90625 0.86907,1.07546 1.86978,2.06047 2.9375,2.9375 0.89187,1.10323 1.89954,2.07489 3,2.96875 0.8571,1.04649 1.79721,2.01915 2.84375,2.875 0.87311,1.07064 1.83556,2.0657 2.90625,2.9375 0.83687,1.01489 1.79655,1.94675 2.8125,2.78125 0.84806,1.03561 1.81001,1.99464 2.84375,2.84375 0.84384,1.02776 1.78549,1.96892 2.8125,2.8125 0.84095,1.0224 1.79009,1.9727 2.8125,2.8125 0.83379,1.00923 1.77017,1.95075 2.78125,2.78125 0.83353,1.00876 1.73933,1.91984 2.75,2.75 0.79835,0.96208 1.69589,1.8569 2.65625,2.65625 0.81287,0.98826 1.73585,1.90064 2.71875,2.71875 0.84095,1.0224 1.75884,1.9727 2.78125,2.8125 0.81502,0.97533 1.70573,1.88108 2.6875,2.6875 0.8077,0.96235 1.68576,1.85909 2.65625,2.65625 0.76465,0.91097 1.58884,1.73647 2.5,2.5 0.78969,0.95748 1.67514,1.79614 2.625,2.59375 0.83379,1.00923 1.73892,1.95075 2.75,2.78125 0.7398,0.87352 1.53085,1.66946 2.40625,2.40625 0.76817,0.92737 1.61221,1.75432 2.53125,2.53125 0.82968,1.00174 1.74538,1.9248 2.75,2.75 0.7776,0.91025 1.60638,1.77156 2.53125,2.53125 0.76994,0.89732 1.58653,1.74968 2.5,2.5 0.68755,0.80104 1.41586,1.53402 2.21875,2.21875 0.74208,0.89203 1.58644,1.71628 2.46875,2.46875 0.73266,0.8807 1.53677,1.66147 2.40625,2.40625 0.73266,0.8807 1.56802,1.69272 2.4375,2.4375 0.72518,0.8679 1.54784,1.67095 2.40625,2.40625 0.72001,0.86163 1.49235,1.64401 2.34375,2.375 0.71179,0.84993 1.53513,1.62117 2.375,2.34375 0.70817,0.84385 1.50916,1.62571 2.34375,2.34375 0.73636,0.87734 1.53362,1.69654 2.40625,2.4375 0.78078,0.91566 1.63286,1.76765 2.5625,2.53125 0.71491,0.80794 1.44761,1.5965 2.28125,2.28125 0.59826,0.67463 1.22416,1.31684 1.90625,1.90625 0.68339,0.80724 1.45017,1.55885 2.25,2.25 0.67764,0.80013 1.39538,1.53267 2.1875,2.21875 0.66982,0.78941 1.43731,1.50927 2.21875,2.1875 0.66612,0.78341 1.41131,1.51383 2.1875,2.1875 0.73262,0.86119 1.51021,1.67859 2.375,2.40625 0.59556,0.67593 1.22677,1.31516 1.90625,1.90625 0.65148,0.76403 1.36854,1.43432 2.125,2.09375 0.69558,0.81451 1.43554,1.58633 2.25,2.28125 0.61807,0.70616 1.29083,1.35461 2,1.96875 0.61532,0.71118 1.29277,1.38079 2,2 0.65995,0.76888 1.35849,1.49425 2.125,2.15625 0.60562,0.69461 1.2438,1.33139 1.9375,1.9375 0.62781,0.7268 1.30764,1.40042 2.03125,2.03125 0.60423,0.6961 1.24498,1.32977 1.9375,1.9375 0.6381,0.7384 1.32559,1.4233 2.0625,2.0625 0.58159,0.66199 1.21292,1.29398 1.875,1.875 0.60184,0.69064 1.24857,1.33426 1.9375,1.9375 0.60766,0.69468 1.24162,1.36297 1.9375,1.96875 0.55531,0.62982 1.15277,1.19363 1.78125,1.75 0.57858,0.6643 1.21569,1.29133 1.875,1.875 0.60254,0.69108 1.24774,1.33399 1.9375,1.9375 0.53577,0.60457 1.11527,1.18218 1.71875,1.71875 0.56069,0.64098 1.17635,1.24688 1.8125,1.8125 0.55849,0.63772 1.14801,1.21822 1.78125,1.78125 0.54271,0.61774 1.13694,1.20252 1.75,1.75 0.56215,0.63987 1.17501,1.24815 1.8125,1.8125 0.52943,0.59697 1.09198,1.15685 1.6875,1.6875 0.54151,0.61287 1.1078,1.17553 1.71875,1.71875 0.51964,0.58593 1.07289,1.13416 1.65625,1.65625 0.51623,0.58253 1.07703,1.13674 1.65625,1.65625 0.51623,0.58253 1.07703,1.13674 1.65625,1.65625 0.50822,0.57265 1.02457,1.11331 1.59375,1.625 0.50204,0.56523 1.06351,1.08794 1.625,1.59375 0.49799,0.55951 1.03743,1.0926 1.59375,1.59375 0.48974,0.54939 0.98518,1.06944 1.53125,1.5625 0.48373,0.54227 1.02384,1.04388 1.5625,1.53125 0.49928,0.55854 1.03623,1.0937 1.59375,1.59375 0.45546,0.50465 0.93406,0.981 1.4375,1.4375 0.52729,0.5889 1.06433,1.16392 1.65625,1.6875 0.41004,0.44545 0.83329,0.87413 1.28125,1.28125 0.48622,0.54178 0.99005,1.04471 1.53125,1.53125 0.42741,0.4694 0.87454,0.91639 1.34375,1.34375 0.49451,0.54859 1.01154,1.07092 1.5625,1.5625 0.42045,0.45575 0.85236,0.89703 1.3125,1.3125 0.43367,0.4742 0.89859,0.91271 1.375,1.34375 0.40378,0.44156 0.80907,0.87701 1.25,1.28125 0.48103,0.53128 0.9971,1.02243 1.53125,1.5 0.35732,0.38399 0.70796,0.76977 1.09375,1.125 0.41423,0.4564 0.85876,0.89562 1.3125,1.3125 0.40538,0.44473 0.83824,0.87423 1.28125,1.28125 0.39649,0.4331 0.81772,0.85284 1.25,1.25 0.44902,0.49048 0.91156,0.96208 1.40625,1.40625 0.31373,0.33348 0.63333,0.6572 0.96875,0.96875 0.39546,0.43385 0.8187,0.85201 1.25,1.25 0.38973,0.42389 0.79463,0.82946 1.21875,1.21875 0.34949,0.37686 0.71686,0.74445 1.09375,1.09375 0.36279,0.39367 0.73245,0.76119 1.125,1.125 0.35858,0.38833 0.73742,0.7658 1.125,1.125 0.34823,0.37621 0.68699,0.74493 1.0625,1.09375 0.39629,0.4282 0.81853,0.82618 1.25,1.21875 0.26439,0.2786 0.53283,0.54932 0.8125,0.8125 0.38754,0.42151 0.7972,0.83145 1.21875,1.21875 0.30956,0.32761 0.6382,0.63117 0.96875,0.9375 0.27819,0.29637 0.54839,0.59584 0.84375,0.875 0.36857,0.39914 0.75707,0.7879 1.15625,1.15625 0.24898,0.26236 0.48745,0.53255 0.75,0.78125 0.35578,0.38442 0.74076,0.73794 1.125,1.09375 0.26494,0.27859 0.53226,0.54938 0.8125,0.8125 0.28639,0.30486 0.57045,0.61964 0.875,0.90625 0.28487,0.30303 0.57218,0.59001 0.875,0.875 0.27675,0.29394 0.58133,0.56681 0.875,0.84375 0.2786,0.29529 0.54806,0.59691 0.84375,0.875 0.28835,0.30363 0.59979,0.58974 0.90625,0.875 0.23552,0.24495 0.47131,0.4859 0.71875,0.71875 0.20392,0.21394 0.412,0.42015 0.625,0.625 0.27558,0.29461 0.55123,0.59731 0.84375,0.875 0.24244,0.25528 0.4947,0.50765 0.75,0.75 0.22276,0.23356 0.45393,0.46481 0.6875,0.6875 0.2446,0.25678 0.49237,0.50637 0.75,0.75 0.24671,0.25672 0.49021,0.50657 0.75,0.75 0.15955,0.16414 0.33502,0.31009 0.5,0.46875 0.219,0.23027 0.42676,0.46775 0.65625,0.6875 0.203,0.21193 0.41307,0.42206 0.625,0.625 0.20486,0.21318 0.41108,0.42096 0.625,0.625 0.18365,0.19009 0.37161,0.37972 0.5625,0.5625 0.22187,0.22987 0.45509,0.43708 0.6875,0.65625 0.0881,0.0896 0.1603,0.19328 0.25,0.28125 0.27435,0.28928 0.55295,0.57109 0.84375,0.84375 0.0574,0.0577 0.12946,0.0992 0.1875,0.15625 0.18717,0.19669 0.36764,0.40472 0.5625,0.59375 0.16319,0.16891 0.33108,0.33684 0.5,0.5 0.1453,0.14922 0.28771,0.29282 0.4375,0.4375 0.1333,0.13679 0.26917,0.27327 0.40625,0.40625 0.1333,0.13679 0.26917,0.27327 0.40625,0.40625 0.1249,0.12771 0.24679,0.25062 0.375,0.375 0.11796,0.12053 0.22285,0.25744 0.34375,0.375 0.1079,0.11001 0.23339,0.20497 0.34375,0.3125 0.10876,0.11072 0.20125,0.23555 0.3125,0.34375 0.0523,0.0531 0.10337,0.10371 0.15625,0.15625 0.0422,0.0402 0.0825,0.0852 0.125,0.125 0.0985,0.10008 0.21192,0.18324 0.3125,0.28125 0.0828,0.0839 0.16577,0.16758 0.25,0.25 0.0773,0.0783 0.14022,0.17297 0.21875,0.25 0.073,0.0738 0.14468,0.1461 0.21875,0.21875 0.0672,0.0679 0.1506,0.12052 0.21875,0.1875 0.0104,0.0107 0.0208,0.0206 0.0312,0.0312 0.0468,0.047 0.0777,0.10967 0.125,0.15625 0.0522,0.0526 0.10343,0.10422 0.15625,0.15625 0.0516,0.0519 0.10415,0.10493 0.15625,0.15625 0.0413,0.0414 0.0833,0.0839 0.125,0.125 0.01,0.01 0.0215,0.0216 0.0312,0.0312 0.005,0.005 0.0263,-0.005 0.0312,0 0.0312,0.0314 0.0624,0.0626 0.0937,0.0937 0.0209,0.0212 0.0415,0.0414 0.0625,0.0625 0.0167,0.0167 0.0145,0.0459 0.0312,0.0625 0.0105,0.0105 0.0207,0.0207 0.0312,0.0312 0.10527,0.10415 0.23623,0.17942 0.34375,0.28125 0.24027,0.22855 0.46756,0.47089 0.71875,0.6875 0.0399,0.0341 0.0848,0.06 0.125,0.0937 0.034,0.0283 0.0595,0.0657 0.0937,0.0937 0.023,0.019 0.0394,0.0436 0.0625,0.0625 0.0173,0.0144 0.0451,0.017 0.0625,0.0312 0.0114,0.009 0.0199,0.0219 0.0312,0.0312 0.44757,0.36354 0.92863,0.70653 1.40625,1.03125 0.0119,0.008 0.0193,0.0231 0.0312,0.0312 0.012,0.008 0.0192,0.0232 0.0312,0.0312 0.007,0.005 0.0244,-0.005 0.0312,0 0.0113,0.008 0.0199,0.0236 0.0312,0.0312 0.012,0.008 0.0192,0.0232 0.0312,0.0312 0.0505,0.0333 0.10544,0.0609 0.15625,0.0937 0.47467,0.31206 0.93669,0.60321 1.4375,0.875 0.0128,0.007 0.0185,0.0243 0.0312,0.0312 0.55563,0.30154 1.13413,0.56351 1.71875,0.8125 0.0128,0.005 0.0184,0.0258 0.0312,0.0312 0.58642,0.24693 1.20052,0.46527 1.8125,0.65625 1.88547,0.59255 3.8733,0.9375 5.9375,0.9375 l 199.90625,0 C 811.01094,860 820.009,851.09355 820,839.96875 L 820,560 c 0,-1.3278 -0.1559,-2.61949 -0.40625,-3.875 -0.0122,-0.0612 -0.0185,-0.12652 -0.0312,-0.1875 -0.0154,-0.0741 -0.0463,-0.145 -0.0625,-0.21875 -0.10608,-0.47913 -0.23491,-0.94062 -0.375,-1.40625 -0.0958,-0.31846 -0.20134,-0.62589 -0.3125,-0.9375 -0.13636,-0.38431 -0.24734,-0.78306 -0.40625,-1.15625 -0.005,-0.0128 -0.0257,-0.0184 -0.0312,-0.0312 -0.25087,-0.58588 -0.54,-1.16295 -0.84375,-1.71875 -0.007,-0.0126 -0.0243,-0.0187 -0.0312,-0.0312 -0.0112,-0.0204 -0.02,-0.0421 -0.0312,-0.0625 -0.007,-0.0127 -0.0242,-0.0186 -0.0312,-0.0312 -0.29044,-0.51923 -0.57227,-1.04157 -0.90625,-1.53125 -0.008,-0.0122 -0.0229,-0.0191 -0.0312,-0.0312 -0.35488,-0.52032 -0.72419,-1.01608 -1.125,-1.5 -0.009,-0.0112 -0.0219,-0.0201 -0.0312,-0.0312 -0.0186,-0.0224 -0.0438,-0.0402 -0.0625,-0.0625 -0.0191,-0.0229 -0.0433,-0.0396 -0.0625,-0.0625 -0.0283,-0.034 -0.0652,-0.0599 -0.0937,-0.0937 -0.0283,-0.034 -0.0652,-0.0599 -0.0937,-0.0937 -0.32236,-0.3739 -0.6203,-0.74447 -0.96875,-1.09375 -0.016,-0.0159 -0.0465,-0.0154 -0.0625,-0.0312 -0.005,-0.005 0.005,-0.0264 0,-0.0312 -0.0571,-0.0567 -0.12975,-0.10021 -0.1875,-0.15625 -0.0156,-0.015 -0.0156,-0.0475 -0.0312,-0.0625 -0.021,-0.0202 -0.0414,-0.0424 -0.0625,-0.0625 -0.0418,-0.0415 -0.0829,-0.0839 -0.125,-0.125 -0.0163,-0.0162 -0.0462,-0.0152 -0.0625,-0.0312 -0.0361,-0.0356 -0.0574,-0.0897 -0.0937,-0.125 -0.0199,-0.0202 -0.0425,-0.0424 -0.0625,-0.0625 -0.006,-0.005 -0.0256,0.005 -0.0312,0 -0.0259,-0.0255 -0.0364,-0.0684 -0.0625,-0.0937 -0.0626,-0.0622 -0.12405,-0.12607 -0.1875,-0.1875 -0.0731,-0.0726 -0.14457,-0.14724 -0.21875,-0.21875 -0.0731,-0.0726 -0.14457,-0.14724 -0.21875,-0.21875 -0.0835,-0.083 -0.16504,-0.16846 -0.25,-0.25 -0.0995,-0.0989 -0.21099,-0.18446 -0.3125,-0.28125 -0.18416,-0.1898 -0.37111,-0.38003 -0.5625,-0.5625 -0.0209,-0.0208 -0.0415,-0.0418 -0.0625,-0.0625 -0.13865,-0.14296 -0.26348,-0.29868 -0.40625,-0.4375 -0.11959,-0.122 -0.25239,-0.2248 -0.375,-0.34375 -0.1234,-0.12609 -0.24837,-0.25216 -0.375,-0.375 -0.1249,-0.12771 -0.24679,-0.25062 -0.375,-0.375 -0.1453,-0.14922 -0.28771,-0.29282 -0.4375,-0.4375 -0.15385,-0.15788 -0.30987,-0.31595 -0.46875,-0.46875 -0.13442,-0.1374 -0.268,-0.27272 -0.40625,-0.40625 -0.24567,-0.25319 -0.49154,-0.50992 -0.75,-0.75 -0.0314,-0.0312 -0.0622,-0.0628 -0.0937,-0.0937 -0.30326,-0.31933 -0.61423,-0.63851 -0.9375,-0.9375 -0.0419,-0.0416 -0.0828,-0.0838 -0.125,-0.125 -0.21202,-0.22326 -0.43436,-0.44286 -0.65625,-0.65625 -0.19335,-0.20099 -0.39234,-0.40089 -0.59375,-0.59375 -0.20474,-0.21283 -0.41123,-0.42129 -0.625,-0.625 -0.18365,-0.19009 -0.37161,-0.37972 -0.5625,-0.5625 -0.24911,-0.26007 -0.51874,-0.50352 -0.78125,-0.75 -0.13914,-0.14284 -0.26299,-0.29882 -0.40625,-0.4375 -0.2916,-0.30971 -0.59589,-0.61544 -0.90625,-0.90625 -0.16983,-0.17472 -0.35528,-0.3315 -0.53125,-0.5 -0.24887,-0.26282 -0.48753,-0.53209 -0.75,-0.78125 -0.23569,-0.24743 -0.47095,-0.48352 -0.71875,-0.71875 -0.24244,-0.25528 -0.4947,-0.50765 -0.75,-0.75 -0.30968,-0.32653 -0.63818,-0.63222 -0.96875,-0.9375 -0.19549,-0.20156 -0.39011,-0.40045 -0.59375,-0.59375 -0.2685,-0.28479 -0.5281,-0.57494 -0.8125,-0.84375 -0.28396,-0.30073 -0.57332,-0.59215 -0.875,-0.875 -0.27959,-0.29481 -0.57833,-0.56621 -0.875,-0.84375 -0.28312,-0.2988 -0.57435,-0.59393 -0.875,-0.875 -0.27446,-0.28985 -0.55278,-0.57055 -0.84375,-0.84375 -0.29172,-0.31053 -0.5957,-0.61466 -0.90625,-0.90625 -0.35831,-0.38202 -0.70714,-0.77175 -1.09375,-1.125 -0.22998,-0.2397 -0.47736,-0.45935 -0.71875,-0.6875 -0.36352,-0.39273 -0.73179,-0.76216 -1.125,-1.125 -0.30956,-0.32761 -0.6382,-0.63117 -0.96875,-0.9375 -0.28829,-0.30713 -0.56829,-0.61763 -0.875,-0.90625 -0.38274,-0.41533 -0.77169,-0.80547 -1.1875,-1.1875 -0.29351,-0.31199 -0.59372,-0.61342 -0.90625,-0.90625 -0.37563,-0.40761 -0.74874,-0.81194 -1.15625,-1.1875 -0.35093,-0.37594 -0.74671,-0.71423 -1.125,-1.0625 -0.33781,-0.36226 -0.66802,-0.72587 -1.03125,-1.0625 -0.35858,-0.38833 -0.73742,-0.7658 -1.125,-1.125 -0.39067,-0.42393 -0.79365,-0.82953 -1.21875,-1.21875 -0.39206,-0.4217 -0.79248,-0.8318 -1.21875,-1.21875 -0.34296,-0.36694 -0.69344,-0.72195 -1.0625,-1.0625 -0.40968,-0.44653 -0.83353,-0.87308 -1.28125,-1.28125 -0.39137,-0.42282 -0.79306,-0.83067 -1.21875,-1.21875 -0.37855,-0.40996 -0.77668,-0.81005 -1.1875,-1.1875 -0.42615,-0.46653 -0.87623,-0.88766 -1.34375,-1.3125 -0.41523,-0.45114 -0.82715,-0.9007 -1.28125,-1.3125 -0.38523,-0.4185 -0.79997,-0.80276 -1.21875,-1.1875 -0.45371,-0.50103 -0.93641,-0.98413 -1.4375,-1.4375 -0.39475,-0.4298 -0.78869,-0.85573 -1.21875,-1.25 -0.43812,-0.48481 -0.92375,-0.93463 -1.40625,-1.375 -0.45837,-0.50618 -0.93079,-1.01124 -1.4375,-1.46875 -0.41806,-0.45815 -0.85453,-0.89447 -1.3125,-1.3125 -0.45148,-0.50176 -0.93864,-0.98314 -1.4375,-1.4375 -0.48103,-0.5346 -0.99659,-1.0506 -1.53125,-1.53125 -0.43692,-0.48091 -0.89429,-0.93812 -1.375,-1.375 -0.52747,-0.58874 -1.09543,-1.13285 -1.6875,-1.65625 -0.42469,-0.46241 -0.84706,-0.92259 -1.3125,-1.34375 -0.50464,-0.56326 -1.06109,-1.09017 -1.625,-1.59375 -0.46072,-0.50936 -0.92787,-1.0086 -1.4375,-1.46875 -0.49354,-0.55326 -1.04309,-1.06644 -1.59375,-1.5625 -0.49954,-0.56039 -1.00441,-1.09203 -1.5625,-1.59375 -0.50369,-0.56623 -1.03037,-1.08728 -1.59375,-1.59375 -0.53599,-0.60345 -1.11523,-1.18324 -1.71875,-1.71875 -0.48863,-0.5437 -1.01847,-1.0433 -1.5625,-1.53125 -0.53577,-0.60457 -1.11527,-1.18218 -1.71875,-1.71875 -0.5209,-0.58478 -1.07175,-1.13542 -1.65625,-1.65625 -0.53577,-0.60457 -1.11527,-1.18218 -1.71875,-1.71875 -0.52943,-0.59697 -1.09198,-1.15685 -1.6875,-1.6875 -0.56876,-0.64459 -1.19842,-1.24501 -1.84375,-1.8125 -0.52597,-0.59053 -1.06546,-1.16221 -1.65625,-1.6875 -0.55243,-0.6288 -1.15599,-1.22531 -1.78125,-1.78125 -0.59273,-0.67682 -1.22961,-1.28257 -1.90625,-1.875 -0.54424,-0.61372 -1.10477,-1.20646 -1.71875,-1.75 -0.57039,-0.65206 -1.19535,-1.26974 -1.84375,-1.84375 -0.57039,-0.65206 -1.19535,-1.26974 -1.84375,-1.84375 -0.57858,-0.6643 -1.21569,-1.29133 -1.875,-1.875 -0.63948,-0.73672 -1.32447,-1.42509 -2.0625,-2.0625 -0.5686,-0.64113 -1.16797,-1.24814 -1.8125,-1.8125 -0.6217,-0.71306 -1.28562,-1.38034 -2,-2 -0.57187,-0.65093 -1.19398,-1.27104 -1.84375,-1.84375 -0.62368,-0.72234 -1.31292,-1.40362 -2.03125,-2.03125 -0.6197,-0.71426 -1.28751,-1.37886 -2,-2 -0.60601,-0.69883 -1.27381,-1.35889 -1.96875,-1.96875 -0.62712,-0.72949 -1.33907,-1.39786 -2.0625,-2.03125 -0.6441,-0.75042 -1.31673,-1.44499 -2.0625,-2.09375 -0.65512,-0.76176 -1.36514,-1.46835 -2.125,-2.125 -0.66215,-0.76623 -1.38796,-1.46583 -2.15625,-2.125 -0.61693,-0.70994 -1.29131,-1.38222 -2,-2 -0.65325,-0.76494 -1.36646,-1.49637 -2.125,-2.15625 -0.69521,-0.81576 -1.46691,-1.58514 -2.28125,-2.28125 -0.67195,-0.77613 -1.40666,-1.49032 -2.1875,-2.15625 -0.59914,-0.69363 -1.25086,-1.33104 -1.9375,-1.9375 -0.6667,-0.80142 -1.438,-1.52917 -2.21875,-2.21875 -0.67613,-0.81275 -1.45669,-1.55238 -2.25,-2.25 -0.68555,-0.82407 -1.47534,-1.57565 -2.28125,-2.28125 -0.69025,-0.82973 -1.46904,-1.57168 -2.28125,-2.28125 -0.69497,-0.8354 -1.49396,-1.59896 -2.3125,-2.3125 -0.69969,-0.84108 -1.48761,-1.595 -2.3125,-2.3125 -0.70439,-0.84673 -1.51253,-1.62232 -2.34375,-2.34375 -0.71381,-0.85805 -1.53107,-1.64574 -2.375,-2.375 -0.72324,-0.86938 -1.54956,-1.6692 -2.40625,-2.40625 -0.73266,-0.8807 -1.53677,-1.66147 -2.40625,-2.40625 -0.73266,-0.8807 -1.53677,-1.66147 -2.40625,-2.40625 -0.73266,-0.8807 -1.56802,-1.69272 -2.4375,-2.4375 -0.74208,-0.89203 -1.58644,-1.71628 -2.46875,-2.46875 -0.7515,-0.90336 -1.60482,-1.7399 -2.5,-2.5 -0.75715,-0.91015 -1.59708,-1.73535 -2.5,-2.5 -0.0378,-0.0454 -0.0868,-0.0799 -0.125,-0.125 -0.0336,-0.028 -0.06,-0.066 -0.0937,-0.0937 -0.71227,-0.83011 -1.47669,-1.60753 -2.3125,-2.3125 -0.0241,-0.0289 -0.0383,-0.0649 -0.0625,-0.0937 -0.0399,-0.0333 -0.0849,-0.0608 -0.125,-0.0937 -0.72028,-0.84291 -1.49644,-1.62931 -2.34375,-2.34375 -0.028,-0.0336 -0.0656,-0.0603 -0.0937,-0.0937 -0.0336,-0.028 -0.06,-0.066 -0.0937,-0.0937 -0.72527,-0.84927 -1.52087,-1.65611 -2.375,-2.375 -0.77977,-0.93733 -1.65973,-1.81107 -2.59375,-2.59375 -0.78467,-0.94323 -1.65296,-1.8072 -2.59375,-2.59375 -0.0186,-0.0224 -0.0438,-0.0402 -0.0625,-0.0625 -0.0227,-0.0188 -0.0397,-0.0438 -0.0625,-0.0625 -0.75953,-0.89718 -1.59773,-1.74724 -2.5,-2.5 -0.79861,-0.95999 -1.69615,-1.85877 -2.65625,-2.65625 -0.80379,-0.9662 -1.68896,-1.85475 -2.65625,-2.65625 -0.009,-0.0113 -0.0218,-0.0199 -0.0312,-0.0312 -0.0112,-0.009 -0.02,-0.022 -0.0312,-0.0312 -0.79821,-0.95104 -1.66765,-1.83515 -2.625,-2.625 -0.82244,-0.98863 -1.72546,-1.90286 -2.71875,-2.71875 -0.81519,-0.97563 -1.73672,-1.88086 -2.71875,-2.6875 -0.82244,-0.98863 -1.72546,-1.90286 -2.71875,-2.71875 -0.82657,-0.99609 -1.75025,-1.92881 -2.75,-2.75 -0.83353,-1.00876 -1.73933,-1.91984 -2.75,-2.75 -0.84072,-1.02198 -1.7592,-1.97299 -2.78125,-2.8125 -0.009,-0.0113 -0.0219,-0.0199 -0.0312,-0.0312 -0.0113,-0.009 -0.02,-0.0221 -0.0312,-0.0312 -0.82244,-0.98863 -1.75671,-1.90286 -2.75,-2.71875 -0.84749,-1.03455 -1.77967,-1.96413 -2.8125,-2.8125 -0.85968,-1.05399 -1.82355,-1.98226 -2.875,-2.84375 -0.85737,-1.04962 -1.82728,-2.01656 -2.875,-2.875 -0.86137,-1.05451 -1.82159,-2.04478 -2.875,-2.90625 -0.86967,-1.0667 -1.87165,-2.0368 -2.9375,-2.90625 -0.87656,-1.07732 -1.82991,-2.06104 -2.90625,-2.9375 -0.89449,-1.10166 -1.89717,-2.10823 -3,-3 -0.87194,-1.06477 -1.86975,-2.03908 -2.9375,-2.90625 -0.90719,-1.1201 -1.90921,-2.159 -3.03125,-3.0625 -0.89302,-1.09506 -1.9007,-2.0821 -3,-2.96875 -0.89216,-1.09705 -1.90105,-2.11142 -3,-3 -0.9196,-1.1404 -1.95215,-2.17701 -3.09375,-3.09375 -0.89768,-1.10806 -1.89183,-2.10378 -3,-3 -0.91789,-1.14382 -1.9842,-2.17365 -3.125,-3.09375 -0.91894,-1.14294 -1.95208,-2.20595 -3.09375,-3.125 -0.92708,-1.15526 -2.002,-2.19815 -3.15625,-3.125 -0.93354,-1.16525 -1.96067,-2.22309 -3.125,-3.15625 -0.93183,-1.16531 -1.99374,-2.19126 -3.15625,-3.125 -0.9467,-1.18798 -2.03303,-2.27084 -3.21875,-3.21875 -0.94455,-1.18414 -2.00532,-2.2421 -3.1875,-3.1875 -0.95101,-1.19743 -2.02537,-2.26439 -3.21875,-3.21875 -0.95721,-1.20652 -2.04699,-2.32135 -3.25,-3.28125 -0.95867,-1.20531 -2.07704,-2.29157 -3.28125,-3.25 -0.97152,-1.22457 -2.08815,-2.34234 -3.3125,-3.3125 -0.98382,-1.2393 -2.10124,-2.36551 -3.34375,-3.34375 -0.98205,-1.23233 -2.0742,-2.37064 -3.3125,-3.34375 -0.98098,-1.23261 -2.10652,-2.33881 -3.34375,-3.3125 -0.97672,-1.23112 -2.11163,-2.33865 -3.34375,-3.3125 -0.99593,-1.26415 -2.14237,-2.41173 -3.40625,-3.40625 -1.00277,-1.27195 -2.13233,-2.43892 -3.40625,-3.4375 -0.99228,-1.25632 -2.14894,-2.38565 -3.40625,-3.375 -1.01902,-1.29925 -2.16791,-2.48478 -3.46875,-3.5 -1.00469,-1.27612 -2.16008,-2.40492 -3.4375,-3.40625 -1.03418,-1.32449 -2.20521,-2.53215 -3.53125,-3.5625 -1.01535,-1.29032 -2.17495,-2.4595 -3.46875,-3.46875 -1.01405,-1.29541 -2.20587,-2.45495 -3.5,-3.46875 -1.03285,-1.32873 -2.23642,-2.52829 -3.5625,-3.5625 -1.04546,-1.34495 -2.24826,-2.55093 -3.59375,-3.59375 -1.0318,-1.32144 -2.24011,-2.50252 -3.5625,-3.53125 -1.04536,-1.34825 -2.24721,-2.5795 -3.59375,-3.625 -1.06043,-1.37034 -2.28544,-2.59846 -3.65625,-3.65625 -1.04699,-1.34692 -2.27715,-2.54989 -3.625,-3.59375 -1.06552,-1.38045 -2.3075,-2.6235 -3.6875,-3.6875 -1.06894,-1.38353 -2.30266,-2.62228 -3.6875,-3.6875 -1.08156,-1.40121 -2.31373,-2.67534 -3.71875,-3.75 -1.06552,-1.3756 -2.30925,-2.59609 -3.6875,-3.65625 -1.07152,-1.39447 -2.32713,-2.6458 -3.71875,-3.71875 -1.08638,-1.42018 -2.364,-2.6934 -3.78125,-3.78125 -1.09846,-1.43597 -2.37621,-2.71671 -3.8125,-3.8125 -1.08556,-1.41274 -2.36764,-2.66771 -3.78125,-3.75 -1.09863,-1.43989 -2.37455,-2.74495 -3.8125,-3.84375 -1.11305,-1.46162 -2.41313,-2.76461 -3.875,-3.875 -1.10038,-1.43848 -2.40442,-2.71545 -3.84375,-3.8125 -1.12136,-1.47632 -2.4297,-2.78756 -3.90625,-3.90625 -1.12464,-1.4776 -2.42563,-2.78782 -3.90625,-3.90625 -1.10607,-1.45446 -2.3922,-2.73632 -3.84375,-3.84375 -1.12974,-1.50086 -2.47359,-2.83425 -3.96875,-3.96875 -3.68175,-4.89119 -9.53101,-8.0625 -16.03125,-8.0625 l -199.875,0 -0.0312,0 z"
       id="path9813"
       inkscape:connector-curvature="0"
       clip-path="url(#clipPath10685)" />
    <path
       id="Rectangle 317"
       d="m 200.00078,160 0,60 200.00783,0 0,-60 z m 0.04,-20 199.90902,0 C 410.88444,140 420,148.9622 420,160.0174 l 0,279.9652 C 420.0094,451.1074 411.03265,460 399.95921,460 l -199.90902,0 C 189.11556,460 180,451.0378 180,439.9826 l 0,-279.9652 C 180,148.8926 188.97675,140 200.05019,140 z m 19.95138,120 0,40 40.00156,0 0,-40 z m 60.00235,0 0,40 40.00156,0 0,-40 z m 60.00235,0 0,40 40.00156,0 0,-40 z m -120.0047,60 0,40 40.00156,0 0,-40 z m 60.00235,0 0,40 40.00156,0 0,-40 z m 60.00235,0 0,40 40.00156,0 0,-40 z m -120.0047,60 0,40 40.00156,0 0,-40 z m 60.00235,0 0,40 40.00156,0 0,-40 z m 60.00235,0 0,40 40.00156,0 0,-40 z m 0,0"
       inkscape:connector-curvature="0"
       style="fill:#ffffff;fill-opacity:1;stroke:none"
       clip-path="url(#clipPath10679)" />
  </g>
</svg>
