<?xml version="1.0" encoding="UTF-8" standalone="no"?>
<!-- Created with Inkscape (http://www.inkscape.org/) -->

<svg
   xmlns:dc="http://purl.org/dc/elements/1.1/"
   xmlns:cc="http://creativecommons.org/ns#"
   xmlns:rdf="http://www.w3.org/1999/02/22-rdf-syntax-ns#"
   xmlns:svg="http://www.w3.org/2000/svg"
   xmlns="http://www.w3.org/2000/svg"
   xmlns:sodipodi="http://sodipodi.sourceforge.net/DTD/sodipodi-0.dtd"
   xmlns:inkscape="http://www.inkscape.org/namespaces/inkscape"
   width="1024"
   height="1024"
   id="svg2"
   version="1.1"
   inkscape:version="0.48.4 r9939"
   sodipodi:docname="ic_launcher.svg"
   inkscape:export-filename="E:\Development\GitHub\ETFCalculator\Media\ic_launcher.png"
   inkscape:export-xdpi="144"
   inkscape:export-ydpi="144">
  <defs
     id="defs4">
    <inkscape:perspective
       sodipodi:type="inkscape:persp3d"
       inkscape:vp_x="-939.3355 : -362.69391 : 1"
       inkscape:vp_y="0 : 3163.0268 : 0"
       inkscape:vp_z="3644.7427 : -362.69391 : 1"
       inkscape:persp3d-origin="1352.7035 : -902.5172 : 1"
       id="perspective3765" />
  </defs>
  <sodipodi:namedview
     id="base"
     pagecolor="#ffffff"
     bordercolor="#666666"
     borderopacity="1.0"
     inkscape:pageopacity="0.0"
     inkscape:pageshadow="2"
     inkscape:zoom="0.7"
     inkscape:cx="132.56329"
     inkscape:cy="510.15908"
     inkscape:document-units="px"
     inkscape:current-layer="layer6"
     showgrid="false"
     showguides="false"
     inkscape:window-width="1920"
     inkscape:window-height="1017"
     inkscape:window-x="892"
     inkscape:window-y="352"
     inkscape:window-maximized="1" />
  <metadata
     id="metadata7">
    <rdf:RDF>
      <cc:Work
         rdf:about="">
        <dc:format>image/svg+xml</dc:format>
        <dc:type
           rdf:resource="http://purl.org/dc/dcmitype/StillImage" />
        <dc:title></dc:title>
      </cc:Work>
    </rdf:RDF>
  </metadata>
  <g
     inkscape:label="Background"
     inkscape:groupmode="layer"
     id="layer1"
     transform="translate(0,-28.362183)">
    <rect
       style="fill:#0099cc;fill-opacity:1;fill-rule:evenodd;stroke:#000000;stroke-width:1px;stroke-linecap:butt;stroke-linejoin:miter;stroke-opacity:1"
       id="rect2990"
       width="924"
       height="924"
       x="50"
       y="78.362183"
       rx="32.857143" />
  </g>
  <g
     inkscape:groupmode="layer"
     id="layer4"
     inkscape:label="Button"
     style="opacity:0.85;display:inline">
    <path
       sodipodi:type="arc"
       style="fill:#ffffff;fill-opacity:1"
       id="path3795"
       sodipodi:cx="663.57141"
       sodipodi:cy="582.57141"
       sodipodi:rx="232.14285"
       sodipodi:ry="242.85715"
       d="m 895.71426,582.57141 a 232.14285,242.85715 0 1 1 -464.2857,0 232.14285,242.85715 0 1 1 464.2857,0 z"
       transform="matrix(1.7384615,0,0,1.6617647,-641.59336,-456.09661)" />
  </g>
  <g
     inkscape:groupmode="layer"
     id="layer6"
     inkscape:label="Calc">
    <g
       id="Icons with numbers"
       style="opacity:0.8;fill:none;stroke:none;display:inline"
       transform="matrix(37.489377,0,0,37.489377,212.09379,212.08498)">
      <g
         transform="translate(-192,-336)"
         id="Group"
         style="fill:#000000">
        <path
           id="Rectangle 317"
           d="m 195,337 0,3 10,0 0,-3 z m 0.002,-1 9.99506,0 c 0.54671,0 1.00247,0.44811 1.00247,1.00087 l 0,13.99826 C 206,351.55537 205.55118,352 204.99753,352 l -9.99506,0 C 194.45576,352 194,351.55189 194,350.99913 l 0,-13.99826 C 194,336.44463 194.44882,336 195.00247,336 z m 0.99753,6 0,2 2,0 0,-2 z m 3,0 0,2 2,0 0,-2 z m 3,0 0,2 2,0 0,-2 z m -6,3 0,2 2,0 0,-2 z m 3,0 0,2 2,0 0,-2 z m 3,0 0,2 2,0 0,-2 z m -6,3 0,2 2,0 0,-2 z m 3,0 0,2 2,0 0,-2 z m 3,0 0,2 2,0 0,-2 z m 0,0"
           inkscape:connector-curvature="0" />
      </g>
    </g>
  </g>
</svg>
